<?xml version="1.0" encoding="UTF-8" standalone="no"?>
<!DOCTYPE svg PUBLIC "-//W3C//DTD SVG 20010904//EN"
              "http://www.w3.org/TR/2001/REC-SVG-20010904/DTD/svg10.dtd">

<svg xmlns="http://www.w3.org/2000/svg"
     width="0.666667in" height="0.333333in"
     viewBox="0 0 200 100">
  <path id="パス"
        fill="none" stroke="black" stroke-width="1"
        d="M 57.00,21.62
           C 57.00,21.62 43.59,22.16 43.59,22.16
             43.59,22.16 43.56,25.47 43.56,25.47
             43.56,25.47 54.28,25.23 54.28,25.23
             54.28,25.23 54.47,30.11 54.47,30.11
             54.47,30.11 43.56,30.39 43.56,30.39
             43.56,32.13 43.55,33.39 43.52,34.17
             47.99,36.01 52.10,38.11 55.84,40.47
             55.84,40.47 52.75,45.00 52.75,45.00
             49.59,42.89 46.48,41.12 43.41,39.72
             43.07,42.24 42.11,44.07 40.53,45.22
             38.96,46.36 37.04,46.94 34.77,46.94
             32.33,46.94 30.36,46.35 28.88,45.17
             27.38,44.00 26.64,42.20 26.64,39.77
             26.64,37.81 27.29,36.20 28.59,34.92
             29.89,33.64 31.89,33.00 34.59,33.00
             35.54,33.00 36.66,32.98 37.97,32.95
             38.02,32.48 38.05,31.70 38.05,30.59
             38.05,30.59 25.84,30.97 25.84,30.97
             25.84,30.97 25.64,26.00 25.64,26.00
             25.64,26.00 38.02,25.67 38.02,25.67
             38.04,25.14 38.05,24.02 38.05,22.31
             38.05,22.31 23.41,22.91 23.41,22.91
             23.41,22.91 23.09,18.00 23.09,18.00
             23.09,18.00 38.02,17.44 38.02,17.44
             38.10,15.74 38.12,13.59 38.09,11.00
             38.09,11.00 43.56,11.08 43.56,11.08
             43.56,11.08 43.56,17.23 43.56,17.23
             43.56,17.23 56.80,16.70 56.80,16.70
             56.80,16.70 57.00,21.62 57.00,21.62 Z
           M 37.97,38.00
           C 36.71,37.95 35.59,37.92 34.62,37.92
             32.88,37.92 32.02,38.57 32.02,39.88
             32.02,41.29 32.80,42.00 34.39,42.00
             36.34,42.00 37.45,41.31 37.72,39.94
             37.72,39.94 37.75,39.94 37.75,39.94
             37.75,39.94 37.75,39.86 37.75,39.86
             37.89,39.68 37.97,39.06 37.97,38.00 Z
           M 88.81,45.55
           C 88.81,45.55 84.47,48.98 84.47,48.98
             80.85,44.27 75.80,38.95 69.31,33.02
             68.57,32.31 68.20,31.37 68.20,30.20
             68.20,28.95 68.64,27.92 69.52,27.12
             73.91,23.17 78.70,17.85 83.89,11.17
             83.89,11.17 88.28,14.61 88.28,14.61
             83.50,20.60 79.02,25.59 74.84,29.56
             74.70,29.71 74.62,29.92 74.62,30.20
             74.62,30.39 74.67,30.53 74.77,30.62
             79.96,35.32 84.64,40.30 88.81,45.55 Z
           M 95.36,21.66
           C 95.36,21.66 92.48,23.91 92.48,23.91
             91.18,21.94 89.69,20.02 88.02,18.14
             88.02,18.14 90.45,16.05 90.45,16.05
             92.55,18.20 94.18,20.06 95.36,21.66 Z
           M 91.61,24.48
           C 91.61,24.48 88.84,26.61 88.84,26.61
             87.44,24.55 85.94,22.62 84.36,20.81
             84.36,20.81 86.84,18.86 86.84,18.86
             88.25,20.20 89.84,22.07 91.61,24.48 Z
           M 119.44,27.59
           C 120.83,27.20 122.23,27.00 123.64,27.00
             126.77,27.00 129.32,27.88 131.27,29.64
             133.21,31.40 134.19,33.70 134.19,36.55
             134.19,39.88 132.71,42.49 129.75,44.38
             126.80,46.26 122.27,47.20 116.16,47.20
             115.50,47.20 114.85,47.21 114.20,47.23
             114.20,47.23 112.36,42.00 112.36,42.00
             113.42,42.00 114.45,42.00 115.45,42.00
             124.37,42.00 128.83,40.11 128.83,36.33
             128.83,35.20 128.36,34.20 127.44,33.33
             126.52,32.45 124.91,32.02 122.59,32.02
             120.04,32.02 117.42,32.69 114.73,34.03
             112.05,35.38 109.89,37.03 108.25,39.00
             108.25,39.00 104.20,35.09 104.20,35.09
             109.71,29.86 114.89,24.62 119.73,19.41
             116.94,19.71 114.02,19.91 110.95,20.00
             110.95,20.00 110.23,15.00 110.23,15.00
             115.35,14.87 121.00,14.20 127.20,13.00
             127.20,13.00 128.97,17.27 128.97,17.27
             125.18,21.53 122.00,24.97 119.44,27.59 Z
           M 162.97,21.84
           C 162.11,27.84 160.94,32.58 159.45,36.08
             157.97,39.58 156.68,41.87 155.56,42.94
             154.46,44.01 153.17,44.55 151.70,44.55
             149.50,44.55 147.57,43.42 145.91,41.17
             144.24,38.91 143.41,36.11 143.41,32.75
             143.41,28.05 145.11,23.92 148.52,20.36
             151.93,16.79 156.30,15.00 161.62,15.00
             166.31,15.00 170.10,16.38 172.98,19.14
             175.87,21.89 177.31,25.33 177.31,29.45
             177.31,33.37 176.05,36.84 173.52,39.86
             170.99,42.88 167.82,45.26 163.98,47.00
             163.98,47.00 160.41,42.94 160.41,42.94
             168.25,39.42 172.17,34.95 172.17,29.53
             172.17,26.84 171.19,24.60 169.23,22.80
             167.27,21.00 164.66,20.09 161.38,20.09
             160.56,20.09 159.75,20.16 158.95,20.30
             158.95,20.30 162.97,21.84 162.97,21.84 Z
           M 157.81,20.58
           C 155.16,21.31 153.00,22.88 151.33,25.28
             149.65,27.69 148.81,30.34 148.81,33.22
             148.81,34.55 149.07,35.85 149.59,37.11
             150.12,38.37 150.70,39.00 151.33,39.00
             151.64,39.00 151.94,38.89 152.22,38.66
             152.51,38.42 153.08,37.32 153.94,35.36
             154.80,33.40 155.55,31.21 156.19,28.80
             156.83,26.38 157.38,23.64 157.81,20.58 Z
           M 58.69,78.64
           C 58.69,78.64 56.09,83.00 56.09,83.00
             54.05,81.80 51.92,80.67 49.70,79.61
             47.82,83.54 45.51,87.34 42.78,91.00
             42.78,91.00 38.34,88.28 38.34,88.28
             40.97,84.93 43.14,81.37 44.86,77.61
             42.64,76.70 40.20,75.96 37.55,75.41
             35.70,79.73 34.05,82.60 32.61,84.02
             31.17,85.43 29.67,86.14 28.11,86.14
             26.35,86.14 24.84,85.51 23.59,84.23
             22.34,82.96 21.72,81.40 21.72,79.55
             21.72,77.18 22.86,75.03 25.14,73.09
             27.43,71.15 30.47,70.12 34.27,70.00
             35.38,67.42 36.42,64.79 37.39,62.12
             33.82,63.09 30.85,63.71 28.50,64.00
             28.50,64.00 27.19,59.22 27.19,59.22
             31.13,58.77 35.88,57.70 41.42,56.00
             41.42,56.00 43.61,59.73 43.61,59.73
             43.59,60.02 42.24,63.60 39.58,70.48
             41.90,71.04 44.27,71.84 46.70,72.88
             47.44,70.04 48.02,66.75 48.42,63.00
             48.42,63.00 53.45,64.00 53.45,64.00
             53.02,67.84 52.38,71.43 51.50,74.80
             54.18,76.11 56.57,77.39 58.69,78.64 Z
           M 31.86,75.38
           C 30.32,75.71 29.11,76.34 28.23,77.28
             27.36,78.22 26.92,79.06 26.92,79.81
             26.92,80.61 27.29,81.00 28.03,81.00
             28.41,81.00 28.97,80.53 29.72,79.59
             30.47,78.65 31.18,77.24 31.86,75.38 Z
           M 99.08,60.91
           C 99.08,60.91 96.30,63.00 96.30,63.00
             94.55,60.37 93.07,58.30 91.88,56.80
             91.88,56.80 94.36,55.00 94.36,55.00
             96.20,57.15 97.77,59.12 99.08,60.91 Z
           M 96.23,73.84
           C 96.23,73.84 88.84,74.58 88.84,74.58
             85.59,75.21 83.04,76.29 81.19,77.80
             79.33,79.30 78.41,80.70 78.41,81.98
             78.41,83.27 79.24,84.26 80.91,84.95
             82.58,85.65 85.03,86.00 88.25,86.00
             88.85,86.00 89.44,85.98 90.00,85.94
             90.00,85.94 88.36,91.17 88.36,91.17
             83.11,91.17 79.22,90.29 76.70,88.53
             74.19,86.77 72.94,84.70 72.94,82.33
             72.94,79.84 74.04,77.57 76.23,75.52
             76.23,75.52 63.09,77.00 63.09,77.00
             63.09,77.00 62.25,72.16 62.25,72.16
             62.25,72.16 69.44,71.45 69.44,71.45
             72.66,68.71 75.54,66.14 78.09,63.72
             75.76,64.16 72.93,64.61 69.61,65.08
             69.61,65.08 68.17,60.00 68.17,60.00
             73.62,59.53 79.67,58.53 86.33,57.00
             86.33,57.00 88.44,60.56 88.44,60.56
             85.16,63.92 81.74,67.20 78.20,70.39
             78.20,70.39 95.77,69.00 95.77,69.00
             95.77,69.00 96.23,73.84 96.23,73.84 Z
           M 95.48,63.88
           C 95.48,63.88 92.64,66.00 92.64,66.00
             91.19,63.69 89.77,61.59 88.36,59.72
             88.36,59.72 90.84,58.00 90.84,58.00
             92.97,60.57 94.52,62.53 95.48,63.88 Z
           M 118.17,71.88
           C 120.18,71.29 122.04,71.00 123.73,71.00
             127.40,71.00 130.44,72.14 132.84,74.41
             135.25,76.68 136.45,79.46 136.45,82.77
             136.45,85.48 135.71,87.73 134.23,89.55
             132.77,91.37 130.85,92.28 128.48,92.28
             125.02,92.28 121.79,90.41 118.81,86.67
             118.81,86.67 122.25,83.00 122.25,83.00
             124.53,85.67 126.47,87.00 128.06,87.00
             129.02,87.00 129.79,86.59 130.36,85.78
             130.94,84.97 131.23,83.95 131.23,82.70
             131.23,80.98 130.50,79.46 129.05,78.17
             127.60,76.87 125.70,76.22 123.36,76.22
             121.70,76.22 119.97,76.56 118.17,77.25
             118.17,77.25 118.17,84.62 118.17,84.62
             118.17,87.01 117.53,88.89 116.25,90.27
             114.98,91.64 113.26,92.33 111.09,92.33
             108.86,92.33 107.08,91.67 105.75,90.36
             104.43,89.05 103.77,87.36 103.77,85.25
             103.77,83.05 104.55,80.93 106.12,78.89
             107.71,76.84 109.96,75.12 112.89,73.75
             112.89,73.75 112.89,68.64 112.89,68.64
             111.11,68.79 108.66,68.93 105.56,69.08
             105.56,69.08 105.09,64.00 105.09,64.00
             107.35,63.92 109.95,63.72 112.89,63.41
             112.89,63.41 112.89,55.00 112.89,55.00
             112.89,55.00 118.17,55.00 118.17,55.00
             118.17,55.00 118.17,62.67 118.17,62.67
             120.37,62.48 122.54,62.26 124.69,62.00
             124.69,62.00 125.17,67.05 125.17,67.05
             122.46,67.48 120.13,67.77 118.17,67.94
             118.17,67.94 118.17,71.88 118.17,71.88 Z
           M 112.89,84.91
           C 112.89,84.91 112.89,79.62 112.89,79.62
             111.75,80.30 110.80,81.15 110.05,82.17
             109.30,83.18 108.92,84.11 108.92,84.94
             108.92,85.54 109.11,86.04 109.48,86.42
             109.86,86.81 110.33,87.00 110.91,87.00
             112.23,87.00 112.89,86.30 112.89,84.91 Z
           M 138.30,67.12
           C 138.30,67.12 134.50,71.00 134.50,71.00
             132.41,68.95 129.63,66.43 126.14,63.44
             126.14,63.44 129.66,60.00 129.66,60.00
             133.11,62.62 135.99,65.00 138.30,67.12 Z
           M 154.36,75.09
           C 157.73,73.70 160.76,73.00 163.44,73.00
             166.54,73.00 169.05,73.89 170.98,75.67
             172.92,77.45 173.89,79.66 173.89,82.28
             173.89,84.99 172.58,87.32 169.95,89.28
             167.33,91.24 162.57,92.22 155.69,92.22
             155.69,92.22 153.81,86.81 153.81,86.81
             155.05,86.94 156.25,87.00 157.42,87.00
             160.71,87.00 163.37,86.61 165.39,85.83
             167.41,85.04 168.42,83.84 168.42,82.23
             168.42,81.09 167.96,80.11 167.03,79.30
             166.10,78.48 164.73,78.06 162.91,78.06
             158.71,78.06 154.47,79.71 150.20,83.00
             150.20,83.00 146.95,79.98 146.95,79.98
             148.29,76.98 149.62,73.01 150.95,68.08
             148.90,68.13 146.63,68.13 144.16,68.08
             144.16,68.08 143.72,63.00 143.72,63.00
             145.21,63.04 146.77,63.06 148.42,63.06
             150.05,63.06 151.35,63.04 152.33,63.00
             153.08,60.23 153.80,57.23 154.52,54.00
             154.52,54.00 159.77,55.16 159.77,55.16
             158.94,58.67 158.29,61.28 157.80,63.00
             163.54,62.65 168.41,61.90 172.41,60.75
             172.41,60.75 172.83,65.75 172.83,65.75
             170.24,66.54 164.76,67.34 156.38,68.12
             155.80,70.46 155.13,72.78 154.36,75.09 Z" />
</svg>
